<svg width="126" height="52" viewBox="0 0 126 52" fill="none" xmlns="http://www.w3.org/2000/svg">
<rect x="-1" y="3" width="103" height="46" fill="#2396D3"/>
<path d="M126 26L102 48.5167L102 3.48334L126 26Z" fill="#2396D3"/>
<path d="M21.0469 32H19.0156L17.0781 25.1875C16.9948 24.8906 16.8906 24.4635 16.7656 23.9062C16.6406 23.3438 16.5651 22.9531 16.5391 22.7344C16.487 23.0677 16.401 23.5 16.2812 24.0312C16.1667 24.5625 16.0703 24.9583 15.9922 25.2188L14.1016 32H12.0703L10.5938 26.2812L9.09375 20.5781H11L12.6328 27.2344C12.888 28.3021 13.0703 29.2448 13.1797 30.0625C13.237 29.6198 13.3229 29.125 13.4375 28.5781C13.5521 28.0312 13.6562 27.5885 13.75 27.25L15.6094 20.5781H17.4609L19.3672 27.2812C19.5495 27.901 19.7422 28.8281 19.9453 30.0625C20.0234 29.3177 20.2109 28.3698 20.5078 27.2188L22.1328 20.5781H24.0234L21.0469 32ZM33.0547 32H31.2109V26.6875C31.2109 26.0208 31.0755 25.5234 30.8047 25.1953C30.5391 24.8672 30.1146 24.7031 29.5312 24.7031C28.7604 24.7031 28.1927 24.9349 27.8281 25.3984C27.4688 25.8568 27.2891 26.6276 27.2891 27.7109V32H25.4531V19.8438H27.2891V22.9297C27.2891 23.4245 27.2578 23.9531 27.1953 24.5156H27.3125C27.5625 24.099 27.9089 23.776 28.3516 23.5469C28.7995 23.3177 29.3203 23.2031 29.9141 23.2031C32.0078 23.2031 33.0547 24.2578 33.0547 26.3672V32ZM41.0156 32L40.6484 30.7969H40.5859C40.1693 31.3229 39.75 31.6823 39.3281 31.875C38.9062 32.0625 38.3646 32.1562 37.7031 32.1562C36.8542 32.1562 36.1901 31.9271 35.7109 31.4688C35.237 31.0104 35 30.362 35 29.5234C35 28.6328 35.3307 27.9609 35.9922 27.5078C36.6536 27.0547 37.6615 26.8073 39.0156 26.7656L40.5078 26.7188V26.2578C40.5078 25.7057 40.3776 25.2943 40.1172 25.0234C39.862 24.7474 39.4635 24.6094 38.9219 24.6094C38.4792 24.6094 38.0547 24.6745 37.6484 24.8047C37.2422 24.9349 36.8516 25.0885 36.4766 25.2656L35.8828 23.9531C36.3516 23.7083 36.8646 23.5234 37.4219 23.3984C37.9792 23.2682 38.5052 23.2031 39 23.2031C40.099 23.2031 40.9271 23.4427 41.4844 23.9219C42.0469 24.401 42.3281 25.1536 42.3281 26.1797V32H41.0156ZM38.2812 30.75C38.9479 30.75 39.4818 30.5651 39.8828 30.1953C40.2891 29.8203 40.4922 29.2969 40.4922 28.625V27.875L39.3828 27.9219C38.5182 27.9531 37.888 28.099 37.4922 28.3594C37.1016 28.6146 36.9062 29.0078 36.9062 29.5391C36.9062 29.9245 37.0208 30.224 37.25 30.4375C37.4792 30.6458 37.8229 30.75 38.2812 30.75ZM48.1094 30.6719C48.5573 30.6719 49.0052 30.6016 49.4531 30.4609V31.8438C49.25 31.9323 48.987 32.0052 48.6641 32.0625C48.3464 32.125 48.0156 32.1562 47.6719 32.1562C45.9323 32.1562 45.0625 31.2396 45.0625 29.4062V24.75H43.8828V23.9375L45.1484 23.2656L45.7734 21.4375H46.9062V23.3594H49.3672V24.75H46.9062V29.375C46.9062 29.8177 47.0156 30.1458 47.2344 30.3594C47.4583 30.5677 47.75 30.6719 48.1094 30.6719ZM52.6562 20.5781L52.7734 20.75C52.4974 21.8385 52.0391 23.0859 51.3984 24.4922H50.0703C50.4297 22.987 50.6901 21.6823 50.8516 20.5781H52.6562ZM60.0859 29.5391C60.0859 30.3828 59.7786 31.0312 59.1641 31.4844C58.5495 31.9323 57.6693 32.1562 56.5234 32.1562C55.3724 32.1562 54.4479 31.9818 53.75 31.6328V30.0469C54.7656 30.5156 55.7109 30.75 56.5859 30.75C57.7161 30.75 58.2812 30.4089 58.2812 29.7266C58.2812 29.5078 58.2188 29.3255 58.0938 29.1797C57.9688 29.0339 57.763 28.8828 57.4766 28.7266C57.1901 28.5703 56.7917 28.3932 56.2812 28.1953C55.2865 27.8099 54.612 27.4245 54.2578 27.0391C53.9089 26.6536 53.7344 26.1536 53.7344 25.5391C53.7344 24.7995 54.0312 24.2266 54.625 23.8203C55.224 23.4089 56.0365 23.2031 57.0625 23.2031C58.0781 23.2031 59.0391 23.4089 59.9453 23.8203L59.3516 25.2031C58.4193 24.8177 57.6354 24.625 57 24.625C56.0312 24.625 55.5469 24.901 55.5469 25.4531C55.5469 25.724 55.6719 25.9531 55.9219 26.1406C56.1771 26.3281 56.7292 26.5859 57.5781 26.9141C58.2917 27.1901 58.8099 27.4427 59.1328 27.6719C59.4557 27.901 59.6953 28.1667 59.8516 28.4688C60.0078 28.7656 60.0859 29.1224 60.0859 29.5391ZM75.9453 32H73.6562L68.0391 22.8984H67.9766L68.0156 23.4062C68.0885 24.375 68.125 25.2604 68.125 26.0625V32H66.4297V20.5781H68.6953L74.2969 29.6328H74.3438C74.3333 29.513 74.3125 29.0781 74.2812 28.3281C74.25 27.5729 74.2344 26.9844 74.2344 26.5625V20.5781H75.9453V32ZM82.5391 32.1562C81.1953 32.1562 80.1432 31.7656 79.3828 30.9844C78.6276 30.1979 78.25 29.1172 78.25 27.7422C78.25 26.3307 78.6016 25.2214 79.3047 24.4141C80.0078 23.6068 80.974 23.2031 82.2031 23.2031C83.3438 23.2031 84.2448 23.5495 84.9062 24.2422C85.5677 24.9349 85.8984 25.888 85.8984 27.1016V28.0938H80.1406C80.1667 28.9323 80.3932 29.5781 80.8203 30.0312C81.2474 30.4792 81.849 30.7031 82.625 30.7031C83.1354 30.7031 83.6094 30.6562 84.0469 30.5625C84.4896 30.4635 84.9635 30.3021 85.4688 30.0781V31.5703C85.0208 31.7839 84.5677 31.9349 84.1094 32.0234C83.651 32.112 83.1276 32.1562 82.5391 32.1562ZM82.2031 24.5938C81.6198 24.5938 81.151 24.7786 80.7969 25.1484C80.4479 25.5182 80.2396 26.0573 80.1719 26.7656H84.0938C84.0833 26.0521 83.9115 25.513 83.5781 25.1484C83.2448 24.7786 82.7865 24.5938 82.2031 24.5938ZM95.0703 32L93.9531 27.9688C93.8177 27.5417 93.5729 26.5495 93.2188 24.9922H93.1484C92.8464 26.3984 92.6068 27.3958 92.4297 27.9844L91.2812 32H89.25L86.8281 23.3594H88.7031L89.8047 27.6172C90.0547 28.6693 90.2318 29.5703 90.3359 30.3203H90.3828C90.4349 29.9401 90.513 29.5052 90.6172 29.0156C90.7266 28.5208 90.8203 28.151 90.8984 27.9062L92.2109 23.3594H94.2266L95.5 27.9062C95.5781 28.1615 95.6745 28.5521 95.7891 29.0781C95.9089 29.6042 95.9792 30.013 96 30.3047H96.0625C96.1406 29.6641 96.3229 28.7682 96.6094 27.6172L97.7266 23.3594H99.5703L97.1328 32H95.0703Z" fill="white"/>
</svg>
