<svg width="39" height="14" viewBox="0 0 39 14" fill="none" xmlns="http://www.w3.org/2000/svg">
<path d="M6.43359 14L5.5957 11.6211H2.32031L1.48242 14H0L3.1875 5.39844H4.74609L7.92773 14H6.43359ZM5.23242 10.4141L4.41797 8.07031C4.38672 7.96875 4.3418 7.82617 4.2832 7.64258C4.22461 7.45508 4.16602 7.26562 4.10742 7.07422C4.04883 6.87891 4 6.71484 3.96094 6.58203C3.92188 6.74219 3.87305 6.92188 3.81445 7.12109C3.75977 7.31641 3.70508 7.5 3.65039 7.67188C3.59961 7.84375 3.56055 7.97656 3.5332 8.07031L2.71289 10.4141H5.23242ZM19.6289 14L18.5117 10.8281H14.1445L13.0273 14H11.0508L15.3008 2.53125H17.3789L21.6211 14H19.6289ZM18.0273 9.21875L16.9414 6.09375C16.8997 5.95833 16.8398 5.76823 16.7617 5.52344C16.6836 5.27344 16.6055 5.02083 16.5273 4.76562C16.4492 4.50521 16.3841 4.28646 16.332 4.10938C16.2799 4.32292 16.2148 4.5625 16.1367 4.82812C16.0638 5.08854 15.9909 5.33333 15.918 5.5625C15.8503 5.79167 15.7982 5.96875 15.7617 6.09375L14.668 9.21875H18.0273ZM35.9717 14L34.645 10.2334H29.459L28.1323 14H25.7852L30.832 0.380859H33.2998L38.3374 14H35.9717ZM34.0698 8.32227L32.7803 4.61133C32.7308 4.45052 32.6597 4.22477 32.5669 3.93408C32.4741 3.63721 32.3813 3.33724 32.2886 3.03418C32.1958 2.72493 32.1185 2.46517 32.0566 2.25488C31.9948 2.50846 31.9175 2.79297 31.8247 3.1084C31.7381 3.41764 31.6515 3.70833 31.5649 3.98047C31.4845 4.2526 31.4227 4.46289 31.3794 4.61133L30.0806 8.32227H34.0698Z" fill="white"/>
</svg>
