<svg width="26" height="27" viewBox="0 0 26 27" fill="none" xmlns="http://www.w3.org/2000/svg">
<path d="M13 26.3792C20.1797 26.3792 26 20.5589 26 13.3792C26 6.19945 20.1797 0.37915 13 0.37915C5.8203 0.37915 0 6.19945 0 13.3792C0 20.5589 5.8203 26.3792 13 26.3792Z" fill="#3B5998"/>
<path d="M14.5 20.394V14.1718H16.5L17 11.5792H14.5V10.5422C14.5 9.50515 15.001 8.98664 16 8.98664H17V6.39404C16.5 6.39404 15.88 6.39404 15 6.39404C13.1625 6.39404 12 7.88789 12 10.0237V11.5792H10V14.1718H12V20.394H14.5Z" fill="white"/>
</svg>
