<svg width="31" height="39" viewBox="0 0 31 39" fill="none" xmlns="http://www.w3.org/2000/svg">
<path d="M12.4474 10.018C11.614 10.2889 11.5775 11.3646 12.3913 11.6857C12.5859 11.7622 12.8241 11.7574 13.1557 11.6712C13.937 11.4675 14.1999 11.4038 14.3192 11.3871L14.4498 11.3682L14.4965 11.6289C14.5228 11.7728 14.5864 12.0955 14.639 12.3453C14.6912 12.596 14.7284 12.8124 14.7214 12.826C14.7135 12.8397 14.5683 12.8507 14.398 12.8507H14.0884V13.0178V13.1849H13.9009C13.5971 13.1849 13.616 13.1383 13.616 13.8775C13.616 14.5614 13.6191 14.579 13.747 14.579C13.935 14.579 13.6486 15.1551 13.43 15.2162C13.1498 15.2963 11.778 15.3381 11.572 15.2743C11.5056 15.2532 11.4597 15.2123 11.4095 15.1278L11.3385 15.0104L10.8982 15.0029L10.4583 14.995V15.1494V15.3033H8.80397C7.32305 15.3033 7.15039 15.3082 7.15039 15.3473C7.15039 15.3728 7.13823 15.3825 7.12174 15.3702C7.10409 15.3583 7.09938 15.3627 7.10997 15.3812C7.11939 15.3987 7.08839 15.5478 7.03973 15.7132C6.85805 16.3403 6.72817 16.9921 6.67912 17.533C6.6642 17.694 6.64694 17.8721 6.64223 17.9301L6.63281 18.0344L8.53949 18.0418L10.445 18.0493L10.4528 18.1953L10.4599 18.3418H10.8931H11.3271L11.3907 18.2283C11.499 18.0357 11.5355 18.0278 12.3336 18.0432C13.1926 18.0603 13.4292 18.0959 14.0943 18.3114C15.2554 18.6866 15.8433 18.6663 16.8231 18.2164C17.3893 17.9561 17.5533 17.8967 17.7609 17.8778C18.5826 17.7986 19.2697 18.6905 19.2622 19.826C19.2599 20.2231 19.294 20.3489 19.4019 20.3485C19.5463 20.3472 19.5832 20.261 19.5832 19.9179V19.6497L19.9748 19.6571L20.3669 19.6651L20.3794 20.6431C20.392 21.7026 20.3943 21.714 20.5293 21.714C20.6631 21.714 20.6647 21.703 20.678 20.6431L20.6906 19.6651L20.8075 19.6567L20.9237 19.6484L20.9315 20.2231C20.9394 20.834 20.9555 20.9048 21.0881 20.9048C21.2199 20.9048 21.2372 20.834 21.2443 20.2231L21.2517 19.6484L21.3687 19.6567L21.4844 19.6651L21.4974 20.3648C21.5107 21.1247 21.5178 21.1564 21.6488 21.1564C21.7924 21.1564 21.7964 21.13 21.7964 20.0802C21.7964 18.6021 21.7128 17.9855 21.4295 17.3514C20.9453 16.27 19.7857 15.5368 18.4143 15.4445C17.7331 15.3983 17.4941 15.324 17.2849 15.094C17.1197 14.9115 17.0322 14.6071 17.1452 14.6071C17.2814 14.6071 17.2951 14.5434 17.2951 13.9088C17.2951 13.1726 17.3124 13.2144 16.9953 13.2144H16.7481V13.0327V12.8515H16.4876C16.2808 12.8515 16.2262 12.8441 16.2262 12.8128C16.2262 12.7913 16.2835 12.4874 16.3518 12.1369C16.4209 11.7864 16.4821 11.4711 16.4903 11.435C16.5064 11.3536 16.4907 11.3514 17.3838 11.5744C17.8837 11.6997 18.1027 11.7415 18.242 11.7406C19.0484 11.7367 19.449 10.8153 18.8891 10.2515C18.5791 9.94018 18.3291 9.91951 17.4207 10.1297C16.5351 10.3364 16.5166 10.3382 16.3738 10.248C15.9582 9.98768 15.0581 9.9802 14.5954 10.2357L14.433 10.3259L14.2073 10.2916C14.0833 10.2731 13.762 10.201 13.4947 10.1302C12.9575 9.9868 12.6444 9.95469 12.4474 10.018ZM19.883 19.8471C19.8096 19.9298 19.8069 21.0381 19.8787 21.1115C19.9435 21.177 20.0463 21.1696 20.093 21.0952C20.1671 20.9769 20.1487 19.9483 20.0706 19.8599C19.9968 19.7772 19.9489 19.7737 19.883 19.8471ZM19.3325 20.987L19.2732 21.0407V22.1406C19.2732 23.3469 19.2748 23.357 19.4247 23.357C19.5821 23.357 19.5875 23.3196 19.5789 22.1252L19.5726 21.0398L19.5138 20.987C19.4396 20.9206 19.4063 20.9206 19.3325 20.987ZM20.9802 21.5368C20.9319 21.6054 20.9292 21.6472 20.9292 22.1305C20.9296 22.7413 20.9405 22.7888 21.09 22.7888C21.2427 22.7888 21.2537 22.7431 21.2454 22.1151C21.2392 21.6357 21.2345 21.5755 21.1917 21.5231C21.1261 21.4435 21.0414 21.4484 20.9802 21.5368ZM19.883 21.7976C19.8351 21.8525 19.834 21.8917 19.834 23.3126V24.7709L19.8917 24.8316C19.965 24.9095 19.9964 24.9081 20.0718 24.8241L20.1322 24.7564V23.3227C20.1322 21.9163 20.131 21.889 20.0808 21.8169C20.0196 21.7281 19.9513 21.7224 19.883 21.7976ZM21.5499 21.7976C21.5029 21.8512 21.5005 21.8917 21.5005 22.6345C21.5005 23.4784 21.508 23.5255 21.6449 23.5255C21.7909 23.5255 21.7983 23.4797 21.7983 22.634C21.7983 21.7866 21.7917 21.7426 21.6492 21.7426C21.621 21.7435 21.577 21.7677 21.5499 21.7976ZM20.4202 22.3618C20.3884 22.4115 20.381 22.5069 20.381 22.8293C20.381 23.2853 20.4014 23.3588 20.5305 23.3588C20.6592 23.3588 20.6792 23.2867 20.6792 22.8293C20.6792 22.3728 20.6592 22.2998 20.5305 22.2998C20.4842 22.2998 20.4453 22.3222 20.4202 22.3618ZM20.9802 23.4604C20.8534 23.6402 20.9335 24.1403 21.0873 24.1403C21.2019 24.1403 21.2392 24.047 21.2392 23.7629C21.2384 23.408 21.1167 23.2656 20.9802 23.4604ZM19.3435 23.9657C19.2642 24.0233 19.2159 25.2828 19.2846 25.4878C19.3337 25.6342 19.4836 25.6426 19.5479 25.5032C19.5942 25.402 19.6017 24.1447 19.5562 24.0475C19.5098 23.9481 19.4188 23.9125 19.3435 23.9657ZM20.4202 24.007C20.3869 24.0602 20.381 24.2164 20.381 25.15V26.2323L20.5305 26.1136L20.6792 25.9962V25.0326C20.6792 23.967 20.6765 23.9446 20.5305 23.9446C20.4842 23.9437 20.4453 23.9661 20.4202 24.007ZM21.5633 24.1469L21.4985 24.2093L21.5056 24.7072L21.5119 25.2037L21.6551 25.0489L21.7979 24.8945V24.5471C21.7979 24.2049 21.7964 24.1983 21.7328 24.142C21.6508 24.0699 21.6414 24.0699 21.5633 24.1469ZM20.999 24.7498C20.9413 24.8022 20.9398 24.8175 20.9323 25.2855L20.9248 25.7666L21.0379 25.6628C21.1057 25.5999 21.1646 25.566 21.1827 25.5788C21.1999 25.5894 21.2046 25.5885 21.1944 25.5753C21.185 25.563 21.1936 25.5304 21.2152 25.5036C21.2859 25.417 21.2568 24.8206 21.1795 24.7503C21.1061 24.6834 21.0728 24.6834 20.999 24.7498ZM19.883 25.5054C19.8363 25.5586 19.8006 26.5925 19.8469 26.5925C19.854 26.5925 19.9042 26.5604 19.9572 26.5208C20.0129 26.479 20.0678 26.4566 20.0855 26.4689C20.1036 26.4804 20.1083 26.4773 20.0985 26.4597C20.089 26.443 20.0922 26.4219 20.1067 26.4118C20.1675 26.3691 20.1377 25.5929 20.071 25.519C19.9968 25.4354 19.9489 25.4319 19.883 25.5054ZM19.3325 26.3115C19.2795 26.3603 19.2732 26.3906 19.2654 26.6462C19.256 26.9659 19.2501 26.9602 19.4498 26.8498L19.5891 26.7737L19.5809 26.5688C19.5679 26.2895 19.4694 26.1875 19.3325 26.3115Z" fill="#FBFBFB"/>
<path d="M15.3589 0.0311886C15.2577 0.0791248 15.1717 0.239645 15.1435 0.434468C15.0964 0.77222 14.8103 1.63067 14.4889 2.40337C14.447 2.50584 14.412 2.59511 14.412 2.60259C14.412 2.63206 14.051 3.3445 13.9231 3.56835C13.8481 3.6994 13.734 3.9039 13.67 4.02264C13.4797 4.37623 12.5948 5.73955 12.3978 5.98099C12.3606 6.02717 12.2923 6.127 12.2471 6.2044C12.1585 6.35392 11.9658 6.63187 11.7633 6.90145C11.6189 7.09408 11.5067 7.25899 11.4443 7.3685C11.4208 7.41204 11.3313 7.54265 11.2461 7.66139C11.088 7.88128 10.2773 9.12718 10.0968 9.42844C10.0422 9.51859 9.88529 9.7719 9.74873 9.98916C9.49995 10.3854 9.39008 10.5692 9.13423 11.0125C9.05968 11.1427 8.91213 11.3969 8.80736 11.5763C8.70298 11.7553 8.57153 12.0003 8.51463 12.1199C8.45773 12.2391 8.37847 12.3921 8.33805 12.4594C8.11948 12.8279 7.48811 14.2418 7.29152 14.803C7.25738 14.9024 7.20636 15.0466 7.17929 15.1236L7.13024 15.2635L8.78186 15.256L10.4331 15.2489V15.1091V14.9706H10.8698C11.323 14.9706 11.4282 15.0018 11.4282 15.1355C11.4282 15.2595 11.6974 15.2868 12.5725 15.2525C13.5115 15.2155 13.5794 15.194 13.701 14.9028C13.7967 14.6728 13.8026 14.6359 13.743 14.6359C13.6037 14.6359 13.5919 14.577 13.5919 13.9028C13.5919 13.1459 13.5809 13.1776 13.8635 13.1631L14.0648 13.1525V12.9748V12.7963H14.3759C14.6086 12.7963 14.6871 12.7879 14.6867 12.7611C14.6867 12.7417 14.6687 12.6446 14.6475 12.5447C14.6129 12.3811 14.4383 11.4352 14.4383 11.4096C14.4383 11.3903 13.8077 11.5293 13.2074 11.681C12.5105 11.8582 12.0415 11.6867 11.8312 11.1788C11.5287 10.447 12.2279 9.80005 13.0951 10.0103C13.6975 10.1572 14.02 10.228 14.219 10.2587L14.434 10.2913L14.5914 10.2077C15.0407 9.96761 16.0566 9.98256 16.4207 10.235C16.5133 10.2992 16.6699 10.2772 17.6234 10.0617C18.1461 9.9443 18.243 9.9355 18.4479 9.98388C19.3783 10.206 19.4418 11.3969 18.5385 11.7118C18.3239 11.7865 18.1453 11.7777 17.6882 11.6687C17.3127 11.5781 16.7515 11.4523 16.5961 11.4228C16.52 11.4079 16.5224 11.4057 16.4776 11.6669C16.4443 11.8587 16.2834 12.674 16.2638 12.7457C16.2524 12.7888 16.2775 12.7945 16.5075 12.8011L16.7641 12.809L16.7708 13.0043L16.7778 13.1996L16.9854 13.1908C17.3213 13.1763 17.2997 13.1244 17.2919 13.9186L17.2852 14.5932L17.204 14.6201C17.1094 14.6513 17.1047 14.6865 17.1753 14.8584C17.3213 15.2199 17.583 15.3409 18.3623 15.4029C19.793 15.5176 20.9722 16.2525 21.4599 17.3326C21.7244 17.9197 21.8233 18.6775 21.8233 20.1455C21.8237 21.0831 21.817 21.1301 21.6962 21.1869C21.4996 21.2788 21.4509 21.1081 21.4509 20.3143L21.4505 19.7088H21.3642H21.2783L21.2708 20.2541L21.2633 20.8003L21.1927 20.868C21.1547 20.9041 21.1072 20.934 21.0891 20.934C21.0695 20.934 21.0232 20.9041 20.9847 20.868L20.9141 20.8003L20.9063 20.2541L20.8992 19.7088H20.8141H20.7297L20.7226 20.6539L20.716 21.5989L20.6563 21.6706C20.5821 21.7586 20.4793 21.7652 20.4146 21.6838C20.3706 21.6297 20.3671 21.5646 20.36 20.6666L20.3534 19.7083H19.968H19.5843V19.988C19.5843 20.3689 19.4846 20.4986 19.3178 20.3377C19.2476 20.2704 19.2476 20.2699 19.2331 19.8288C19.2001 18.8011 18.7477 18.0609 18.068 17.9241C17.7737 17.8648 17.5175 17.9325 16.7488 18.2742C15.7431 18.7197 15.2824 18.7245 14.002 18.3032C13.2121 18.0429 11.584 17.9628 11.4514 18.1766C11.3281 18.3771 11.3466 18.3701 10.8698 18.3701H10.435L10.4272 18.2236L10.4201 18.0772L8.52405 18.0701L6.62836 18.0631L6.61188 18.137C6.5283 18.5086 6.71115 20.0083 6.94071 20.8408C7.00075 21.0585 7.05019 21.2502 7.05019 21.2669C7.05019 21.3439 7.34331 22.073 7.52774 22.453C7.63801 22.6834 7.7467 22.9077 7.76671 22.9522C7.85265 23.1404 8.31451 23.8849 8.41574 23.9971C8.43772 24.0226 8.48285 24.0863 8.51581 24.14C8.72574 24.4782 9.59413 25.4506 9.88529 25.6726C9.93316 25.7096 10.034 25.7975 10.109 25.8697C10.5999 26.338 11.7284 27.0637 12.3602 27.3148C13.6363 27.8254 14.2064 27.9551 15.2784 27.9789C16.3583 28.0017 17.1741 27.8693 18.0551 27.529C18.6029 27.3183 18.6876 27.2822 18.9627 27.1468L19.2488 27.0065L19.2409 26.74C19.2323 26.4343 19.2429 26.3622 19.3119 26.2853C19.4485 26.1327 19.5847 26.2795 19.5847 26.579V26.7914L19.6859 26.7272L19.786 26.6621L19.7915 26.1137C19.7969 25.5152 19.8209 25.422 19.9712 25.422C20.1203 25.422 20.143 25.4892 20.1568 25.9774L20.1686 26.4264L20.2608 26.3552L20.353 26.2857L20.3597 25.1599C20.3671 24.0982 20.3699 24.0309 20.4146 23.9755C20.4793 23.8942 20.581 23.9003 20.6551 23.9892L20.7152 24.0595L20.7273 25.0152L20.7395 25.9704L20.8482 25.8776C20.9078 25.8257 20.9443 25.783 20.9282 25.783C20.8694 25.783 20.9027 24.8208 20.9632 24.7557C21.146 24.5574 21.2579 24.695 21.2739 25.1409L21.2861 25.4783L21.3717 25.3987L21.4568 25.3182L21.4505 24.8432C21.4423 24.2046 21.4752 24.0819 21.6558 24.0819C21.7833 24.0819 21.8213 24.191 21.8213 24.5661V24.9035L21.9732 24.7368C22.1062 24.5903 22.2353 24.4223 22.5799 23.9487C22.7333 23.7367 23.1567 23.0414 23.2187 22.8967C23.2516 22.8202 23.3533 22.6065 23.4435 22.4244C23.7162 21.8668 23.8815 21.4028 24.0572 20.6961C24.4234 19.2259 24.4308 17.7443 24.0796 16.2556C24.0384 16.0771 23.9984 15.8981 23.9917 15.8602C23.9458 15.5841 23.5856 14.5457 23.3639 14.0514C23.2944 13.8966 23.2379 13.7563 23.2379 13.7383C23.2379 13.6943 22.8804 12.9546 22.6681 12.5579C22.5779 12.389 22.4888 12.2144 22.4716 12.1683C22.4268 12.0557 21.6907 10.7711 21.4262 10.3463C21.3093 10.1563 21.1056 9.8282 20.9765 9.6149C20.5786 8.96535 19.7126 7.63237 19.6467 7.5686C19.6306 7.55321 19.5764 7.47141 19.5266 7.38741C19.4767 7.30341 19.3571 7.12662 19.2621 6.99732C19.1656 6.86715 19.0176 6.65561 18.9309 6.5272C18.8446 6.39922 18.7076 6.19868 18.6256 6.08346C18.3094 5.63576 18.0904 5.31472 18.0904 5.29757C18.0904 5.28789 18.0696 5.25359 18.0433 5.22149C18.017 5.19026 17.8805 4.98357 17.7408 4.76324C17.6011 4.5429 17.4669 4.33753 17.4429 4.3063C17.419 4.27508 17.3684 4.188 17.3307 4.11192C17.293 4.03496 17.1898 3.84717 17.1004 3.69369C16.7888 3.15803 16.5961 2.74904 16.2634 1.92401C16.1154 1.55635 15.9118 0.911631 15.8776 0.700975C15.7878 0.136296 15.6132 -0.0884319 15.3589 0.0311886ZM20.0402 19.7963C20.1493 19.8614 20.1548 19.8917 20.1552 20.4661C20.1568 21.0629 20.1446 21.1328 20.0289 21.1869C19.8299 21.2788 19.7789 21.1174 19.7875 20.4379L19.7958 19.8974L19.8656 19.8301C19.9453 19.7545 19.9641 19.751 20.0402 19.7963ZM19.5329 20.9802C19.6129 21.0941 19.6141 23.2297 19.5336 23.326C19.4669 23.4064 19.3735 23.4034 19.2974 23.3185L19.237 23.2499V22.1746C19.237 21.2797 19.2429 21.0853 19.2731 21.0189C19.3343 20.8856 19.4544 20.8676 19.5329 20.9802ZM21.1927 21.5035L21.2637 21.5708V22.1465V22.723L21.1927 22.7903C21.1547 22.8268 21.1072 22.8576 21.0891 22.8576C21.0695 22.8576 21.0232 22.8268 20.9847 22.7903L20.9141 22.723V22.1465V21.5708L20.9847 21.5035C21.0232 21.4666 21.0703 21.4362 21.0891 21.4362C21.108 21.4353 21.1547 21.4666 21.1927 21.5035ZM20.0956 21.7841L20.1568 21.8518V23.311C20.1568 24.9523 20.1635 24.8925 19.9724 24.8925C19.7891 24.8925 19.7958 24.9518 19.7958 23.3163V21.8589L19.8558 21.7867C19.9323 21.6961 20.0171 21.6948 20.0956 21.7841ZM21.7107 21.7318C21.8818 21.8056 21.8818 23.4636 21.7107 23.5366C21.6346 23.5687 21.5839 23.5542 21.5235 23.4821L21.4631 23.4104V22.6342V21.8584L21.5235 21.7863C21.5832 21.715 21.6342 21.7001 21.7107 21.7318ZM20.6422 22.3175C20.714 22.3989 20.7285 22.4891 20.7285 22.8295C20.7285 23.2613 20.6842 23.3875 20.5323 23.3875C20.3887 23.3875 20.3679 23.3194 20.3679 22.8295C20.3679 22.4354 20.3738 22.3831 20.415 22.3307C20.4734 22.2608 20.5849 22.2542 20.6422 22.3175ZM21.1951 23.4152C21.3571 23.5841 21.2743 24.1681 21.0891 24.1681C20.9169 24.1681 20.8294 23.6065 20.9757 23.4315C21.0471 23.3453 21.1237 23.3396 21.1951 23.4152ZM19.5348 23.9724C19.5815 24.0252 19.5847 24.0652 19.5847 24.7601C19.5847 25.5856 19.578 25.6168 19.423 25.6168C19.2468 25.6168 19.2358 25.568 19.2358 24.7614V24.0529L19.2966 23.9856C19.3708 23.9021 19.4673 23.8964 19.5348 23.9724ZM15.0336 32.5016V34.4247H15.4064H15.7792L15.7811 33.4836L15.7823 32.5433L15.858 32.4765C16.006 32.3441 16.1594 32.3081 16.2869 32.3762C16.4498 32.4611 16.4513 32.4774 16.4513 33.5016V34.4247H16.8371H17.222V33.5531C17.222 32.5702 17.2051 32.3925 17.0882 32.1528C16.863 31.6902 16.2967 31.5556 15.8847 31.8665L15.7788 31.9474V31.2623V30.5784H15.406H15.0332V32.5016H15.0336ZM27.3452 32.5016V34.4247H27.7176H28.0907V32.5016V30.5784H27.7176H27.3452V32.5016ZM12.8448 30.6773C11.6499 30.9795 11.1198 32.5425 11.8289 33.6745C12.3398 34.4903 13.6386 34.74 14.3924 34.1661L14.5097 34.0764V33.2606V32.4453L13.9074 32.4536L13.3039 32.4607V32.7426C13.3039 33.1054 13.3106 33.1164 13.568 33.1164H13.7638V33.3917V33.667L13.6829 33.7048C13.5213 33.7822 13.0779 33.7567 12.9115 33.6621C12.2114 33.2641 12.1565 32.0134 12.8177 31.5305L12.9554 31.4298L13.3035 31.4307H13.6516L13.8427 31.549C14.1585 31.7429 14.2421 31.7205 14.4313 31.3872C14.5596 31.1593 14.5596 31.1673 14.4183 31.0274C14.095 30.7046 13.369 30.545 12.8448 30.6773ZM2.87151 32.5438V34.4247H3.28157H3.69202V33.6441V32.8639H4.32614H4.96026V33.645V34.426L5.37738 34.4181L5.79372 34.4107L5.80039 32.5988C5.80471 31.6027 5.80078 30.7578 5.79372 30.724C5.78038 30.6611 5.77763 30.6611 5.3766 30.669L4.97282 30.6769L4.96615 31.4632L4.95948 32.2509H4.32614H3.6928V31.4562V30.6611H3.28196H2.87072V32.5429L2.87151 32.5438ZM23.5342 32.0345L23.5271 33.408L23.469 33.5223C23.3796 33.6964 23.307 33.7308 23.0111 33.7365C22.705 33.7431 22.7086 33.7391 22.6819 34.1494L22.6638 34.4172L22.884 34.4529C23.4643 34.5448 23.8626 34.4005 24.1243 34.0034C24.3441 33.6683 24.3449 33.6617 24.3547 32.0627L24.3633 30.6615H23.9521H23.5412L23.5342 32.0345ZM6.99996 31.735C6.80572 31.783 6.46355 31.9677 6.37879 32.0697L6.31758 32.1423L6.39135 32.2975C6.51966 32.5671 6.67427 32.6097 6.94463 32.4532C7.30839 32.2399 7.5556 32.3406 7.59013 32.7118L7.60426 32.8661H7.45397C6.58676 32.8661 6.07036 33.3714 6.26892 34.0263C6.42352 34.5373 7.12867 34.6473 7.59406 34.2334L7.68784 34.1507L7.71845 34.2466C7.77221 34.4137 7.79811 34.4269 8.072 34.4269H8.32039L8.31294 33.4308L8.30509 32.4334L8.23289 32.2689C8.02805 31.797 7.55953 31.5952 6.99996 31.735ZM9.86017 31.7509C9.79896 31.7825 9.69654 31.8696 9.63376 31.9448L9.51839 32.082L9.50152 31.965C9.47287 31.764 9.44541 31.7491 9.12246 31.7491H8.84032V33.0865V34.4243H9.2135H9.58667V33.6221V32.8195L9.65456 32.7017C9.75462 32.5288 9.87548 32.4717 10.1003 32.4923C10.3138 32.5126 10.3193 32.5055 10.344 32.1946C10.3526 32.0798 10.3664 31.9382 10.3738 31.881C10.397 31.7007 10.1042 31.6273 9.86017 31.7509ZM18.3541 31.7341C18.1587 31.783 18.0013 31.8612 17.8185 32.0002C17.6415 32.1343 17.6442 32.1194 17.769 32.3287C17.9181 32.5816 18.0319 32.6027 18.3356 32.4312C18.6821 32.2373 18.9003 32.3459 18.9325 32.7311L18.9435 32.8639H18.7948C18.287 32.8639 17.7541 33.1234 17.6187 33.4352C17.2817 34.2171 18.2321 34.8254 18.9031 34.2576C19.0298 34.1494 19.0322 34.1494 19.0463 34.2119C19.0867 34.39 19.1452 34.4252 19.4128 34.4252H19.6592L19.658 33.4691C19.6569 32.6871 19.6498 32.495 19.6184 32.4035C19.598 32.3415 19.5717 32.2584 19.5595 32.2166C19.4477 31.819 18.8995 31.5996 18.3541 31.7341ZM21.2123 31.746C21.157 31.7737 21.0597 31.8621 20.9981 31.9426L20.8847 32.0886L20.867 31.9615C20.8419 31.7733 20.7972 31.7487 20.4746 31.7487H20.2058V33.0865V34.4247H20.5786H20.9522V33.6168C20.9522 32.5433 20.9922 32.4519 21.4541 32.4914C21.6397 32.5077 21.6467 32.506 21.6714 32.4418C21.7005 32.3639 21.7444 31.8137 21.7232 31.7759C21.6726 31.6862 21.3677 31.6664 21.2123 31.746ZM25.4632 31.7487C25.1038 31.8542 24.7887 32.0825 24.8424 32.1977C25.0206 32.5812 25.1646 32.6331 25.4868 32.4321C25.7995 32.2359 26.062 32.3534 26.0942 32.7043L26.1079 32.8556L25.8619 32.8736C25.0465 32.9312 24.6431 33.3002 24.733 33.9089C24.8201 34.4977 25.5754 34.6811 26.0918 34.2409L26.1962 34.1516L26.2123 34.2457C26.2363 34.3948 26.2998 34.4265 26.5796 34.4265H26.8229V33.4783C26.8229 32.4334 26.8143 32.3595 26.6549 32.1036C26.4372 31.7487 25.9514 31.6053 25.4632 31.7487ZM7.59759 33.5293C7.59759 33.8218 7.18674 34.0364 6.99368 33.8464C6.79748 33.652 7.0804 33.3868 7.5038 33.3697L7.59759 33.3657V33.5293ZM18.938 33.5307C18.938 33.9128 18.3215 34.0887 18.2964 33.7136C18.2842 33.5263 18.5267 33.3736 18.8442 33.3671L18.9376 33.3657V33.5307H18.938ZM26.1009 33.5307C26.1009 33.7888 25.8144 33.9801 25.5652 33.8895L25.466 33.8526V33.7004C25.466 33.4946 25.6586 33.3758 26.0071 33.3671L26.1001 33.364L26.1009 33.5307ZM3.56841 37.3378V38.9404H3.8792H4.18998V37.3374V35.7344H3.8792H3.56841V37.3378ZM21.9893 35.8184C21.7154 36.0875 21.8673 36.5436 22.2322 36.5436C22.5222 36.5436 22.6846 36.2138 22.539 35.9239C22.4319 35.7128 22.1506 35.6579 21.9893 35.8184ZM26.1998 35.8105C25.8595 36.1311 26.1715 36.698 26.5812 36.5045C26.7876 36.4081 26.8672 36.1161 26.7417 35.9099C26.6259 35.7212 26.3477 35.6697 26.1998 35.8105ZM0.728214 36.9403C0.719189 38.3665 0.716834 38.374 0.295003 38.3603C0.0473981 38.3524 0.045436 38.3546 0.0163983 38.677C-0.00989254 38.976 -0.0385378 38.9351 0.223586 38.9725C0.730961 39.0459 1.1061 38.8766 1.27915 38.4971C1.39608 38.2403 1.40511 38.133 1.40511 36.9403V35.8184H1.07039H0.735669L0.728214 36.9403ZM6.27873 36.9403C6.27873 38.3432 6.27206 38.3682 5.87691 38.3595C5.58575 38.3524 5.58653 38.3515 5.56534 38.7082L5.552 38.936L5.67325 38.9598C6.16532 39.0539 6.60442 38.9105 6.7916 38.5956C6.95758 38.3177 6.96072 38.2913 6.97014 36.9961L6.97838 35.818H6.62875H6.27873V36.9403ZM18.4404 37.3792V38.94H18.7386H19.0377L19.0443 38.0023L19.051 37.0656L19.2868 37.5617C19.4175 37.8344 19.547 38.1149 19.5741 38.1853C19.722 38.5613 19.7816 38.6361 19.9527 38.6541C20.167 38.6779 20.2309 38.6246 20.3722 38.3093C20.4397 38.158 20.601 37.8097 20.7309 37.5353L20.9659 37.0375L20.9734 37.9887L20.98 38.9395H21.2783H21.5761V37.3787V35.818H21.2524C20.8513 35.818 20.9012 35.7661 20.5594 36.5335C20.4177 36.8536 20.2847 37.1522 20.2643 37.1975C20.2435 37.2437 20.1768 37.3924 20.1152 37.5269L20.0018 37.7701L19.8688 37.4847C19.7954 37.3282 19.6957 37.1043 19.6455 36.9891C19.1079 35.7463 19.1632 35.8184 18.752 35.8184H18.4424V37.3792H18.4404ZM2.17539 36.7103C1.95721 36.7723 1.65389 36.9759 1.65389 37.0612C1.65389 37.3106 1.9164 37.4407 2.16048 37.3106C2.4897 37.1355 2.67335 37.216 2.67335 37.5344V37.6246L2.51796 37.643C1.74296 37.7345 1.36861 38.1677 1.61112 38.6928C1.76847 39.0332 2.36649 39.0882 2.70905 38.794C2.75379 38.7566 2.76164 38.7588 2.80951 38.8397C2.86091 38.9254 2.86523 38.9259 3.09282 38.936L3.32316 38.9435L3.31571 38.1272C3.30707 37.2143 3.3004 37.1764 3.11323 36.9438C2.93312 36.7199 2.51403 36.6148 2.17539 36.7103ZM7.83421 36.7199C7.32252 36.9104 7.06314 37.3998 7.14397 38.0213C7.21735 38.5824 7.5297 38.9189 8.03786 38.9831C8.45891 39.0367 9.09146 38.7491 8.99532 38.5464C8.86544 38.275 8.74065 38.2262 8.50129 38.3568C8.19286 38.5266 7.94212 38.4571 7.81223 38.1681C7.72983 37.987 7.71021 37.9931 8.36512 37.9931C9.06831 37.9931 9.02907 38.0125 9.02436 37.6752C9.01455 36.9768 8.42045 36.5009 7.83421 36.7199ZM9.82917 36.712C9.23429 36.8783 8.95726 37.6211 9.21703 38.3568C9.4458 39.0055 10.2989 39.2109 10.8612 38.7531C11.0021 38.6374 11.006 38.6018 10.8898 38.4386C10.7462 38.2359 10.7152 38.2293 10.4711 38.3577C10.1584 38.5208 9.93159 38.4566 9.80092 38.1677C9.71891 37.9861 9.69968 37.9918 10.3444 37.9918H10.9283L10.9695 37.9219C11.079 37.7345 10.9507 37.1931 10.7399 36.9504C10.55 36.7309 10.1423 36.6236 9.82917 36.712ZM13.5189 36.7248C13.1936 36.8264 12.9947 36.9948 13.0437 37.1285C13.1418 37.3928 13.2968 37.439 13.577 37.2925C13.8462 37.1522 14.0302 37.2301 14.0565 37.4975L14.0695 37.6233L13.8984 37.6422C13.3832 37.7011 13.0159 37.9087 12.9464 38.1796C12.7816 38.8234 13.3675 39.2034 13.9902 38.859C14.1232 38.7847 14.1507 38.7768 14.1687 38.8129C14.2245 38.925 14.2645 38.9408 14.478 38.9408H14.6898L14.6816 38.1259C14.6718 37.2094 14.6651 37.1747 14.4728 36.9346C14.2829 36.6997 13.8807 36.6118 13.5189 36.7248ZM15.7999 36.734C15.7364 36.7626 15.6497 36.8149 15.6073 36.8484L15.5312 36.909L15.5076 36.84C15.4719 36.7358 15.4075 36.7103 15.1725 36.7103H14.959V37.8256V38.94H15.2702H15.5818V38.1602V37.3801L15.7121 37.2969C15.8557 37.2041 15.8961 37.1962 15.9922 37.2459C16.1201 37.311 16.128 37.3673 16.128 38.1862V38.94H16.4541H16.7806L16.7715 38.1114C16.7602 37.2041 16.7535 37.1571 16.5867 36.9117C16.4439 36.7054 16.0578 36.6179 15.7999 36.734ZM23.2622 36.7235C22.6116 36.9579 22.6018 37.8744 23.2493 38.0617C23.6327 38.1739 23.7633 38.301 23.6335 38.4373C23.5487 38.5244 23.3745 38.5138 23.1944 38.4083C22.9911 38.2891 22.9185 38.308 22.8031 38.509C22.6717 38.7399 22.6878 38.7711 23.0091 38.896C23.6856 39.162 24.2676 38.8586 24.2707 38.2411C24.2739 37.8911 24.1314 37.7266 23.6802 37.5573C23.4149 37.4579 23.3395 37.3849 23.3976 37.2842C23.4529 37.1883 23.6684 37.1817 23.8654 37.2684C24.0282 37.3409 24.0773 37.326 24.1785 37.1738C24.2801 37.0212 24.2801 36.9807 24.1769 36.8932C23.9572 36.7041 23.5342 36.6254 23.2622 36.7235ZM24.9197 36.7068C24.578 36.8079 24.3951 37.0845 24.4143 37.472C24.4312 37.8124 24.5403 37.939 24.9606 38.0925C25.2333 38.1932 25.3051 38.246 25.3051 38.3432C25.3051 38.5116 25.0583 38.5437 24.811 38.4078C24.5921 38.2873 24.481 38.348 24.3519 38.6572C24.2907 38.8036 24.6933 38.9809 25.0806 38.9778C25.6312 38.9729 25.9196 38.6985 25.8976 38.1972C25.8831 37.8774 25.7391 37.7235 25.3035 37.5604C25.0229 37.4544 24.9382 37.355 25.0359 37.2446C25.0842 37.1905 25.3361 37.205 25.4891 37.271C25.6614 37.3436 25.7144 37.3242 25.8285 37.1391C25.9298 36.9746 25.9188 36.9526 25.6716 36.8092C25.4726 36.6966 25.1195 36.6483 24.9197 36.7068ZM27.643 36.727C26.9838 36.9258 26.7169 37.8722 27.1239 38.5617C27.4193 39.0618 28.296 39.1392 28.7013 38.6985C29.0666 38.3005 29.089 37.4698 28.7468 37.0449C28.491 36.7296 28.0542 36.6034 27.643 36.727ZM30.048 36.7221C29.997 36.7433 29.9154 36.7925 29.8679 36.8343C29.7812 36.9082 29.7314 36.909 29.7314 36.8356C29.7314 36.749 29.6266 36.7103 29.3904 36.7103H29.1596V37.8256V38.9391H29.4834H29.8063V38.1611V37.3823L29.8718 37.3255C30.0319 37.1835 30.2168 37.1879 30.3153 37.3334C30.3631 37.4051 30.3667 37.4535 30.3741 38.1747L30.3816 38.9391H30.6908H31V38.1637C31 37.3238 30.9855 37.1997 30.8603 36.9865C30.7033 36.723 30.3412 36.6056 30.048 36.7221ZM10.9299 36.7512C10.9299 36.7736 11.0531 37.1355 11.2034 37.5568C11.3533 37.9782 11.4765 38.3344 11.4765 38.3476C11.4765 38.3608 11.5196 38.4975 11.5722 38.6493L11.6691 38.9263L11.9654 38.9347L12.2617 38.9422L12.5878 38.0147C12.8923 37.1492 13.0186 36.7723 13.0186 36.7292C13.0186 36.6997 12.472 36.7081 12.4214 36.7389C12.3739 36.7666 12.3602 36.8114 12.0937 37.7763C12.0356 37.9887 11.9854 38.151 11.9827 38.14C11.9128 37.808 11.6075 36.822 11.5593 36.7732C11.4839 36.6949 10.9299 36.6746 10.9299 36.7512ZM21.8983 37.8256V38.94H22.2216H22.5445V37.8256V36.7103H22.2208H21.8979L21.8983 37.8256ZM26.1252 37.8256V38.94H26.4372H26.7479V37.8256V36.7103H26.4372H26.1252V37.8256ZM8.34119 37.2578C8.39416 37.2996 8.46793 37.45 8.46793 37.5186C8.46793 37.5366 8.34197 37.5472 8.11987 37.5472C7.92799 37.5472 7.77142 37.5393 7.77142 37.5318C7.77142 37.2925 8.15127 37.1091 8.34119 37.2578ZM10.3271 37.2749C10.377 37.3352 10.4327 37.4649 10.4327 37.5212C10.4327 37.5357 10.2883 37.5476 10.0964 37.5476H9.7609L9.79974 37.4434C9.88843 37.2046 10.1882 37.1083 10.3271 37.2749ZM28.2049 37.3308C28.4549 37.6364 28.3619 38.3485 28.0613 38.4395C27.7003 38.5486 27.4609 37.9443 27.6614 37.432C27.758 37.1883 28.044 37.1338 28.2049 37.3308ZM2.67335 38.2139C2.67335 38.4637 2.36492 38.6128 2.19462 38.4448C2.05021 38.3032 2.28369 38.0793 2.57995 38.0775L2.67335 38.0762V38.2139ZM14.0632 38.2082C14.0632 38.4685 13.6182 38.6396 13.5527 38.4052C13.5001 38.2196 13.6661 38.0872 13.958 38.0784L14.064 38.0758L14.0632 38.2082Z" fill="#2494D4"/>
<path d="M19.1684 10.8581C19.1692 10.9197 19.1751 10.9412 19.1806 10.9065C19.1865 10.8722 19.1865 10.8225 19.1798 10.7952C19.1731 10.7689 19.168 10.7974 19.1684 10.8581ZM17.0043 13.2057C17.0424 13.2123 17.1044 13.2123 17.1417 13.2057C17.1789 13.1991 17.1487 13.1947 17.073 13.1947C16.9977 13.1947 16.9667 13.1991 17.0043 13.2057ZM10.4395 15.1231C10.4395 15.1997 10.4449 15.2278 10.4508 15.1856C10.4563 15.1429 10.4563 15.0809 10.4508 15.0457C10.4449 15.0114 10.4395 15.0462 10.4395 15.1231ZM11.794 15.2964C11.8388 15.3026 11.9113 15.3026 11.9561 15.2964C12.0004 15.2898 11.9643 15.285 11.8752 15.285C11.7858 15.285 11.7501 15.2907 11.794 15.2964ZM18.0744 15.4068C18.0983 15.4134 18.1372 15.4134 18.1615 15.4068C18.1847 15.3998 18.1654 15.394 18.1172 15.394C18.0697 15.3945 18.0497 15.4002 18.0744 15.4068ZM18.4719 15.4349C18.4958 15.4415 18.5351 15.4415 18.5586 15.4349C18.5833 15.427 18.5633 15.4222 18.5159 15.4222C18.4676 15.4222 18.4484 15.4279 18.4719 15.4349ZM11.9325 18.0569C12.0801 18.0618 12.3155 18.0618 12.4548 18.0569C12.5941 18.0516 12.4733 18.0477 12.1856 18.0477C11.898 18.0477 11.7846 18.0516 11.9325 18.0569ZM18.6395 18.2113C18.6395 18.217 18.6763 18.257 18.7207 18.3023L18.8011 18.3841L18.7277 18.294C18.6614 18.2091 18.6395 18.1902 18.6395 18.2113ZM10.6125 18.363C10.7188 18.3683 10.8923 18.3683 10.9978 18.363C11.1038 18.3573 11.0175 18.3538 10.8048 18.3538C10.5937 18.3533 10.5069 18.3577 10.6125 18.363ZM21.8046 19.3459C21.8046 19.3987 21.8097 19.4216 21.8156 19.3943C21.8218 19.3675 21.8218 19.3235 21.8156 19.2971C21.8093 19.2698 21.8046 19.2918 21.8046 19.3459ZM19.2469 19.889C19.2469 20.0738 19.2504 20.145 19.2551 20.0487C19.2606 19.9524 19.2606 19.8011 19.2551 19.714C19.2493 19.6269 19.2469 19.7057 19.2469 19.889ZM20.142 20.488C20.142 20.7721 20.1455 20.8887 20.1498 20.7462C20.1541 20.605 20.1541 20.3724 20.1498 20.2312C20.1455 20.0896 20.142 20.2052 20.142 20.488ZM19.2489 22.1473C19.2489 22.7296 19.252 22.9728 19.2555 22.6861C19.2595 22.3993 19.2598 21.923 19.2555 21.6262C19.2512 21.3298 19.2489 21.5642 19.2489 22.1473ZM21.2611 22.1328C21.2611 22.4015 21.265 22.5106 21.2689 22.3769C21.2736 22.2432 21.2736 22.0242 21.2689 21.8901C21.265 21.7555 21.2611 21.865 21.2611 22.1328ZM20.1431 23.3031C20.1431 24.078 20.1471 24.3933 20.1498 24.0072C20.1541 23.6202 20.1541 22.9869 20.1498 22.5999C20.1471 22.2128 20.1431 22.5308 20.1431 23.3031ZM21.2599 23.7626C21.2599 23.8713 21.2646 23.9104 21.2689 23.8532C21.2744 23.7947 21.2744 23.7077 21.2685 23.658C21.2638 23.6092 21.2599 23.6567 21.2599 23.7626ZM19.2481 24.7803C19.2481 25.1563 19.252 25.3107 19.2555 25.122C19.2598 24.9342 19.2598 24.6268 19.2555 24.439C19.2504 24.2512 19.2481 24.4052 19.2481 24.7803ZM21.2509 25.2188C21.2434 25.3903 21.247 25.5213 21.2576 25.509C21.2682 25.4967 21.274 25.3555 21.2693 25.1976L21.2631 24.907L21.2509 25.2188ZM20.142 26.0209C20.142 26.2509 20.1455 26.3415 20.1498 26.2219C20.1541 26.1023 20.1541 25.9145 20.1498 25.8037C20.1455 25.6937 20.142 25.7914 20.142 26.0209ZM19.2457 26.6903C19.2457 26.8433 19.2504 26.9022 19.2547 26.8213C19.2606 26.74 19.2606 26.6142 19.2547 26.5429C19.2493 26.4704 19.2457 26.5368 19.2457 26.6903Z" fill="#73BBE3"/>
<path d="M11.7827 10.8725C11.7827 10.9415 11.7874 10.9692 11.7933 10.9354C11.7992 10.9006 11.7992 10.8448 11.7933 10.8096C11.7874 10.7757 11.7827 10.8034 11.7827 10.8725ZM14.7104 12.7763C14.7104 12.8159 14.6672 12.8233 14.3933 12.8299L14.0763 12.8379L14.0739 13.0186L14.0716 13.1998L14.081 13.0261L14.0904 12.8519H14.4012C14.7033 12.8519 14.7924 12.8238 14.7261 12.7486C14.7171 12.7389 14.7104 12.7512 14.7104 12.7763ZM16.4809 12.844L16.7474 12.8533L16.756 13.0261L16.7646 13.1994L16.7627 13.0177L16.7607 12.837L16.4876 12.8357L16.2141 12.8339L16.4809 12.844ZM13.6388 14.5592C13.6568 14.5864 13.698 14.6075 13.7286 14.6075C13.7596 14.6075 13.7914 14.6238 13.7981 14.6427C13.8059 14.6638 13.8118 14.6577 13.8126 14.6286C13.8138 14.593 13.7953 14.5803 13.7447 14.5803C13.707 14.5803 13.6596 14.5644 13.6407 14.5447C13.6113 14.5156 13.6109 14.5174 13.6388 14.5592ZM10.6502 14.9906C10.7629 14.9959 10.9477 14.9959 11.0603 14.9906C11.1733 14.9853 11.0803 14.9809 10.8547 14.9809C10.6286 14.9809 10.538 14.9858 10.6502 14.9906ZM8.78476 15.2694C7.70997 15.2751 7.12372 15.2866 7.12176 15.305C7.11744 15.3455 7.11117 15.367 7.08095 15.448C7.06565 15.4889 7.0472 15.5702 7.03896 15.6287C7.02994 15.6995 7.04799 15.6621 7.09194 15.5205L7.15865 15.3046H8.80869C9.89172 15.3046 10.458 15.2949 10.458 15.276C10.458 15.2615 10.4548 15.2523 10.4513 15.2553C10.4478 15.2589 9.69827 15.2659 8.78476 15.2694ZM12.2312 15.298C12.3513 15.3033 12.542 15.3033 12.6538 15.298C12.7664 15.2923 12.668 15.2888 12.4349 15.2888C12.2026 15.2874 12.1107 15.2923 12.2312 15.298ZM17.9242 15.4071C17.9489 15.4137 17.9877 15.4137 18.0117 15.4071C18.0352 15.4 18.0164 15.3943 17.9681 15.3943C17.9202 15.3947 17.9018 15.4005 17.9242 15.4071ZM18.2487 15.4356C18.286 15.4422 18.348 15.4422 18.3864 15.4356C18.4237 15.4291 18.3927 15.4238 18.3166 15.4238C18.2412 15.4238 18.2098 15.4295 18.2487 15.4356ZM18.6587 15.4634C18.6901 15.4708 18.74 15.4708 18.771 15.4634C18.8016 15.4563 18.7765 15.4515 18.7145 15.4515C18.6525 15.4515 18.6285 15.4568 18.6587 15.4634ZM6.91575 16.0733C6.90633 16.1138 6.90359 16.1534 6.90947 16.1591C6.91575 16.1661 6.92713 16.1375 6.93655 16.0975C6.94557 16.0562 6.94832 16.017 6.94283 16.0109C6.93694 16.0043 6.92477 16.032 6.91575 16.0733ZM6.65873 17.5484C6.65912 17.6099 6.66422 17.631 6.66971 17.5967C6.67599 17.5616 6.67599 17.5123 6.66971 17.485C6.66344 17.4582 6.65833 17.4868 6.65873 17.5484ZM6.63479 17.8549C6.63479 17.931 6.63989 17.9596 6.64539 17.9173C6.65166 17.8751 6.65166 17.8122 6.64539 17.7779C6.63871 17.7432 6.6344 17.7779 6.63479 17.8549ZM17.7758 17.8892C17.8261 17.8958 17.9108 17.8958 17.9626 17.8892C18.0129 17.8826 17.9709 17.8786 17.8696 17.8786C17.766 17.8786 17.7244 17.8826 17.7758 17.8892ZM8.53519 18.0572L10.4301 18.0651L10.4391 18.1966L10.4485 18.3294L10.4466 18.1896L10.4446 18.0506L8.54225 18.0501H6.63871L8.53519 18.0572ZM12.7394 18.0554C12.7704 18.0629 12.8151 18.062 12.839 18.055C12.863 18.048 12.8379 18.0431 12.7829 18.0436C12.7284 18.0436 12.7088 18.0488 12.7394 18.0554ZM15.2515 18.5862C15.3379 18.5915 15.4764 18.5915 15.5623 18.5862C15.6479 18.5805 15.578 18.5761 15.4069 18.5761C15.2358 18.5761 15.166 18.581 15.2515 18.5862ZM21.8093 20.2104C21.8093 20.6462 21.8129 20.8247 21.816 20.6062C21.8207 20.388 21.8207 20.0305 21.816 19.811C21.8129 19.5942 21.8093 19.7728 21.8093 20.2104ZM19.9694 19.6734L20.3547 19.6822L20.3614 20.5938L20.3688 21.5064V20.5868L20.3677 19.6668L19.9756 19.6655L19.5836 19.6646L19.9694 19.6734ZM20.6906 19.6875C20.6835 19.7068 20.682 20.1426 20.6851 20.6559L20.6918 21.5895L20.6981 20.6365L20.7047 19.6839L20.8221 19.6729L20.9406 19.6619L20.8217 19.6576C20.7451 19.654 20.6984 19.665 20.6906 19.6875ZM21.3565 19.6721L21.4742 19.6835L21.4809 20.344L21.488 21.0055L21.4872 20.3357L21.486 19.6668L21.3616 19.6637L21.2376 19.6611L21.3565 19.6721ZM19.8191 20.4883C19.8191 20.7882 19.823 20.9096 19.8273 20.7605C19.832 20.6106 19.832 20.3665 19.8273 20.217C19.8226 20.0674 19.8191 20.1901 19.8191 20.4883ZM19.4228 20.3493L19.3486 20.3704L19.4161 20.374C19.4526 20.3766 19.4895 20.3652 19.4977 20.3506C19.5067 20.3353 19.5099 20.3243 19.5059 20.3265C19.5016 20.3273 19.464 20.337 19.4228 20.3493ZM19.8206 23.3033C19.8206 24.0932 19.8238 24.4155 19.8277 24.0215C19.8312 23.627 19.8312 22.9805 19.8277 22.5852C19.823 22.192 19.8206 22.5144 19.8206 23.3033ZM21.4856 22.6349C21.4856 23.0571 21.4895 23.229 21.4931 23.0175C21.4978 22.8068 21.4978 22.4629 21.4931 22.2514C21.4895 22.0416 21.4856 22.2131 21.4856 22.6349ZM21.8089 22.6349C21.8089 23.0263 21.8129 23.1855 21.816 22.9898C21.8207 22.7945 21.8207 22.4748 21.816 22.28C21.8129 22.0843 21.8089 22.2439 21.8089 22.6349ZM20.6886 22.8297C20.6886 23.0522 20.693 23.1433 20.6969 23.032C20.7028 22.9207 20.7028 22.7391 20.6969 22.6274C20.6926 22.5166 20.6886 22.6072 20.6886 22.8297ZM20.3653 22.8297C20.3653 23.0219 20.3696 23.1006 20.3739 23.0043C20.379 22.908 20.379 22.7514 20.3739 22.6555C20.3688 22.5597 20.3653 22.6384 20.3653 22.8297ZM20.6788 25.0431V26.0005L20.5788 26.074C20.5242 26.1149 20.4791 26.1558 20.4791 26.1632C20.4791 26.1716 20.5297 26.1386 20.5913 26.0907L20.7039 26.0058V25.0453C20.7039 24.5163 20.6973 24.0839 20.691 24.0839C20.6851 24.0839 20.6788 24.5158 20.6788 25.0431ZM20.3673 25.1715C20.3673 25.7468 20.3708 25.982 20.3747 25.694C20.3782 25.4064 20.3794 24.9362 20.3747 24.6486C20.3696 24.3619 20.3673 24.5963 20.3673 25.1715ZM21.4805 24.7313C21.4738 25.3083 21.4738 25.3065 21.6708 25.0765L21.8235 24.898L21.8188 24.5822L21.8133 24.2656L21.7991 24.5897L21.7854 24.9143L21.6481 25.0554L21.5107 25.1984L21.4982 24.7172L21.484 24.2352L21.4805 24.7313ZM21.1399 25.577C21.0846 25.6307 21.0622 25.6628 21.0901 25.6487C21.1623 25.6091 21.2839 25.4754 21.2455 25.4772C21.2411 25.4785 21.1937 25.5234 21.1399 25.577ZM19.8132 26.0977C19.8104 26.3858 19.8171 26.621 19.8273 26.6215C19.8371 26.6215 19.8426 26.4676 19.8395 26.2798C19.8273 25.6373 19.8191 25.5748 19.8132 26.0977ZM20.0161 26.4772C19.8866 26.57 19.8469 26.614 19.9454 26.5573C20.1346 26.4482 20.1597 26.4311 20.1401 26.4192C20.1287 26.4108 20.073 26.4381 20.0161 26.4772ZM19.4102 26.8656C19.2434 26.9557 19.2501 26.9518 19.2658 26.9698C19.2791 26.983 19.504 26.8577 19.546 26.8128C19.5813 26.7763 19.5624 26.7833 19.4102 26.8656Z" fill="#A5D4ED"/>
<path d="M18.9365 11.4498L18.8502 11.5545L18.9436 11.4586C18.9946 11.4059 19.0362 11.3588 19.0362 11.354C19.0366 11.3328 19.0158 11.3535 18.9365 11.4498ZM14.6852 12.767C14.6852 12.7819 14.5514 12.7973 14.3682 12.8026L14.0507 12.811L14.3803 12.8167C14.6593 12.8224 14.71 12.8167 14.71 12.7815C14.71 12.7586 14.7041 12.7397 14.6974 12.7397C14.6907 12.7397 14.6852 12.7516 14.6852 12.767ZM16.371 12.8162C16.4428 12.8219 16.5597 12.8219 16.6312 12.8162C16.7037 12.8096 16.6441 12.8061 16.5005 12.8061C16.3576 12.8061 16.298 12.8101 16.371 12.8162ZM13.7957 13.1782C13.8471 13.1839 13.931 13.1839 13.9824 13.1782C14.0335 13.172 13.9915 13.1667 13.8891 13.1667C13.787 13.1667 13.7447 13.172 13.7957 13.1782ZM16.8305 13.205C16.8536 13.2125 16.8925 13.2125 16.9172 13.205C16.9415 13.1975 16.9219 13.1927 16.8737 13.1927C16.8254 13.1927 16.8058 13.1975 16.8305 13.205ZM13.6014 13.8959C13.6014 14.2482 13.6053 14.3893 13.6093 14.2086C13.614 14.0274 13.614 13.7385 13.6093 13.5674C13.6042 13.3959 13.6014 13.5441 13.6014 13.8959ZM7.9634 15.2689C8.4182 15.2733 9.16258 15.2733 9.61777 15.2689C10.0722 15.2645 9.70017 15.261 8.79059 15.261C7.881 15.261 7.509 15.2645 7.9634 15.2689ZM12.4293 15.2689C12.5361 15.2746 12.704 15.2746 12.8029 15.2689C12.9014 15.2636 12.8139 15.2597 12.6086 15.2597C12.4038 15.2597 12.3226 15.2641 12.4293 15.2689ZM18.2231 15.4065C18.2467 15.4131 18.2855 15.4131 18.3098 15.4065C18.3334 15.3995 18.3146 15.3938 18.2659 15.3938C18.2184 15.3942 18.198 15.3999 18.2231 15.4065ZM20.9903 16.6414C21.057 16.718 21.1171 16.7804 21.1245 16.7804C21.1316 16.7804 21.0818 16.7175 21.0147 16.6414C20.9472 16.5649 20.8875 16.5025 20.8797 16.5025C20.8722 16.5025 20.9221 16.5654 20.9903 16.6414ZM12.8139 18.0831C12.8453 18.0901 12.8896 18.0901 12.9139 18.0826C12.9375 18.0756 12.912 18.0699 12.8574 18.0707C12.8025 18.0703 12.7829 18.076 12.8139 18.0831ZM13.0493 18.1108C13.0736 18.1178 13.1129 18.1178 13.136 18.1108C13.1604 18.1033 13.1407 18.0976 13.0929 18.0976C13.045 18.098 13.0258 18.1033 13.0493 18.1108ZM15.326 18.6125C15.3708 18.6196 15.4383 18.6187 15.4751 18.6125C15.5128 18.606 15.4759 18.6011 15.3939 18.6011C15.3115 18.6016 15.2809 18.6073 15.326 18.6125ZM19.7794 19.701C19.892 19.7067 20.0713 19.7067 20.1761 19.701C20.2817 19.6953 20.1883 19.6922 19.9697 19.6922C19.7519 19.6913 19.6644 19.6953 19.7794 19.701ZM20.7153 19.7138C20.7082 19.7344 20.7062 20.1579 20.709 20.6558L20.7164 21.5617L20.7223 20.6347L20.7282 19.7085H20.8153H20.902L20.9091 20.2309L20.9174 20.7534L20.9162 20.2235L20.915 19.6935L20.8216 19.6856C20.7608 19.6795 20.7239 19.69 20.7153 19.7138ZM21.2619 19.7155C21.2552 19.7358 21.2529 19.9772 21.2568 20.2521L21.2646 20.7534L21.2701 20.2309L21.2764 19.7085H21.3627H21.4498L21.4565 20.3426L21.464 20.9768L21.4699 20.3281L21.4761 19.679H21.3761C21.3156 19.6799 21.2689 19.6949 21.2619 19.7155ZM19.7943 20.4878C19.7943 20.7877 19.7978 20.9091 19.8021 20.76C19.8072 20.61 19.8072 20.366 19.8021 20.2164C19.7974 20.0669 19.7943 20.1896 19.7943 20.4878ZM20.913 22.1471C20.913 22.4386 20.9174 22.5543 20.9209 22.403C20.926 22.2522 20.926 22.0151 20.9209 21.8744C20.917 21.7319 20.913 21.8555 20.913 22.1471ZM19.7943 23.3173C19.7943 24.0993 19.7978 24.4234 19.8014 24.0377C19.8053 23.652 19.8053 23.0117 19.8014 22.6159C19.7978 22.2201 19.7943 22.5354 19.7943 23.3173ZM21.46 22.6343C21.46 23.0258 21.464 23.185 21.4675 22.9893C21.4722 22.794 21.4722 22.4743 21.4675 22.2794C21.464 22.0837 21.46 22.2434 21.46 22.6343ZM20.7129 22.8292C20.7129 23.0363 20.7176 23.1203 20.7212 23.0174C20.7255 22.9136 20.7255 22.7443 20.7212 22.6414C20.7176 22.5372 20.7129 22.6225 20.7129 22.8292ZM20.9119 23.7624C20.9119 23.886 20.9166 23.9326 20.9205 23.8666C20.9268 23.8011 20.9268 23.7008 20.9201 23.6432C20.915 23.5865 20.9119 23.6401 20.9119 23.7624ZM20.7145 25.0448C20.7145 25.5673 20.7184 25.7757 20.7215 25.5101C20.7259 25.2458 20.7259 24.8187 20.7215 24.5628C20.7184 24.3064 20.7145 24.5232 20.7145 25.0448ZM21.4597 24.7664C21.4589 25.0281 21.4632 25.1376 21.4675 25.0118C21.473 24.8869 21.473 24.6732 21.4675 24.539C21.4636 24.4031 21.4597 24.5065 21.4597 24.7664ZM20.913 25.3241C20.913 25.5857 20.9174 25.6948 20.9209 25.5703C20.926 25.4437 20.926 25.2313 20.9209 25.0976C20.9166 24.9612 20.913 25.0633 20.913 25.3241ZM19.7943 26.1187C19.7943 26.4024 19.7978 26.5181 19.8021 26.3769C19.8072 26.2353 19.8072 26.0026 19.8021 25.8615C19.7974 25.719 19.7943 25.8346 19.7943 26.1187Z" fill="#4FACDC"/>
</svg>
