<svg width="26" height="27" viewBox="0 0 26 27" fill="none" xmlns="http://www.w3.org/2000/svg">
<path d="M13 26.3623C20.1797 26.3623 26 20.542 26 13.3623C26 6.1826 20.1797 0.362305 13 0.362305C5.8203 0.362305 0 6.1826 0 13.3623C0 20.542 5.8203 26.3623 13 26.3623Z" fill="#1CB7EB"/>
<path d="M19.9335 9.26404C19.446 9.51013 18.8501 9.65778 18.3085 9.707C18.9043 9.36247 19.3376 8.82108 19.5543 8.18125C19.0126 8.47655 18.4168 8.72264 17.7126 8.8703C17.171 8.3289 16.4668 7.98438 15.6543 7.98438C14.0835 7.98438 12.7835 9.21482 12.7835 10.7898C12.7835 10.9867 12.7835 11.2328 12.8376 11.4296C10.4543 11.3312 8.3418 10.1992 6.93346 8.52577C6.66263 8.91951 6.5543 9.41169 6.5543 9.95309C6.5543 10.9374 7.0418 11.7742 7.80013 12.2663C7.31263 12.2663 6.8793 12.1187 6.50013 11.9218V11.971C6.50013 13.2999 7.47513 14.4319 8.77513 14.7272C8.55847 14.7764 8.28763 14.8257 8.0168 14.8257C7.8543 14.8257 7.63763 14.8257 7.47513 14.7764C7.8543 15.9085 8.88347 16.6959 10.1293 16.6959C9.1543 17.4342 7.90846 17.8772 6.60846 17.8772C6.3918 17.8772 6.17513 17.8772 5.9043 17.8279C7.15013 18.6154 8.6668 19.1076 10.2918 19.1076C15.546 19.1076 18.4168 14.8749 18.4168 11.1835C18.4168 11.0851 18.4168 10.9374 18.4168 10.839C19.0668 10.3468 19.5543 9.85465 19.9335 9.26404Z" fill="white"/>
</svg>
