<svg width="26" height="27" viewBox="0 0 26 27" fill="none" xmlns="http://www.w3.org/2000/svg">
<path d="M13 26.3792C5.8214 26.3792 0 20.5578 0 13.3792C0 6.20055 5.8214 0.37915 13 0.37915C20.1786 0.37915 26 6.20055 26 13.3792C26 20.5578 20.1786 26.3792 13 26.3792Z" fill="#FF0000"/>
<path d="M21.2724 9.19577C21.0748 8.44697 20.4898 7.85937 19.7462 7.65917C18.3994 7.29517 13.0018 7.29517 13.0018 7.29517C13.0018 7.29517 7.60159 7.29517 6.25739 7.65917C5.51379 7.85937 4.92879 8.44697 4.73119 9.19577C4.36719 10.5504 4.36719 13.3792 4.36719 13.3792C4.36719 13.3792 4.36719 16.208 4.72859 17.5626C4.92619 18.3114 5.51119 18.899 6.25479 19.0992C7.60159 19.4632 12.9992 19.4632 12.9992 19.4632C12.9992 19.4632 18.3994 19.4632 19.7436 19.0992C20.4872 18.899 21.0722 18.3114 21.2698 17.5626C21.6312 16.208 21.6312 13.3792 21.6312 13.3792C21.6312 13.3792 21.6312 10.5504 21.2724 9.19577ZM11.2338 15.9454V10.813L15.7448 13.3792L11.2338 15.9454Z" fill="white"/>
</svg>
